<?xml version="1.0" standalone="no"?>
<!DOCTYPE svg PUBLIC "-//W3C//DTD SVG 20010904//EN"
 "http://www.w3.org/TR/2001/REC-SVG-20010904/DTD/svg10.dtd">
<svg version="1.0" xmlns="http://www.w3.org/2000/svg"
 width="369.000000pt" height="250.000000pt" viewBox="0 0 369.000000 250.000000"
 preserveAspectRatio="xMidYMid meet">
<g transform="translate(0.000000,250.000000) scale(0.100000,-0.100000)"
fill="#000000" stroke="none">
<path d="M2463 1433 c-20 -4 -23 -11 -23 -49 0 -44 0 -44 -35 -44 -31 0 -35
-3 -35 -25 0 -22 4 -25 35 -25 l35 0 0 -125 c0 -119 1 -127 24 -150 26 -26 73
-38 127 -33 26 2 35 8 37 26 3 19 -1 22 -30 22 -18 0 -44 7 -56 16 -21 14 -22
22 -22 135 l0 119 60 0 c53 0 60 2 60 20 0 18 -7 20 -60 20 l-60 0 0 50 c0 53
-1 54 -57 43z"/>
<path d="M355 1334 c-16 -8 -37 -22 -47 -31 -15 -13 -17 -12 -20 9 -2 18 -10
24 -35 26 l-33 3 0 -175 0 -176 40 0 40 0 0 115 c0 64 5 125 11 139 26 56 133
72 172 25 14 -18 17 -42 17 -150 l0 -129 45 0 45 0 0 126 0 126 31 29 c36 33
82 38 129 14 38 -20 50 -64 50 -192 l0 -103 41 0 41 0 -4 134 c-3 151 -13 175
-79 208 -60 31 -160 17 -211 -29 -17 -15 -20 -15 -41 5 -46 43 -136 56 -192
26z"/>
<path d="M1104 1336 c-18 -8 -35 -19 -38 -25 -12 -18 -36 -12 -36 9 0 16 -7
20 -35 20 l-35 0 0 -175 0 -175 40 0 40 0 0 98 c0 125 12 167 53 192 47 29 93
26 128 -9 29 -29 29 -30 29 -155 l0 -126 40 0 40 0 0 121 0 121 34 34 c43 43
100 47 143 10 28 -24 28 -27 33 -158 l5 -133 38 -3 37 -3 0 138 c0 121 -3 142
-20 171 -47 76 -183 84 -263 14 -16 -14 -19 -13 -40 6 -45 42 -131 55 -193 28z"/>
<path d="M1772 1340 c-57 -12 -64 -17 -53 -39 9 -16 15 -17 73 -5 74 16 129 5
153 -29 31 -44 21 -54 -60 -60 -87 -8 -167 -38 -190 -73 -31 -48 -12 -114 42
-139 60 -29 94 -29 163 -1 75 31 70 30 70 11 0 -10 11 -15 35 -15 l35 0 0 126
c0 143 -12 184 -64 211 -36 19 -143 26 -204 13z m188 -213 c0 -88 -106 -140
-174 -86 -31 24 -34 59 -6 84 20 18 104 43 153 44 25 1 27 -2 27 -42z"/>
<path d="M2244 1319 l-39 -31 -9 26 c-8 20 -17 26 -38 26 l-28 0 0 -175 0
-175 40 0 40 0 0 116 0 116 34 34 c26 26 42 34 70 34 33 0 36 2 36 30 0 27 -3
30 -34 30 -22 0 -46 -10 -72 -31z"/>
<path d="M2733 1339 c-24 -6 -43 -16 -43 -22 0 -20 17 -40 28 -33 26 16 111
25 146 15 37 -10 66 -41 66 -71 0 -14 -8 -18 -33 -18 -103 0 -215 -41 -236
-87 -50 -109 98 -191 226 -125 51 27 49 27 56 2 4 -15 14 -20 36 -20 l31 0 0
135 c0 148 -8 178 -56 210 -32 21 -159 29 -221 14z m197 -214 c0 -37 -5 -51
-26 -70 -44 -41 -114 -44 -156 -7 -56 49 31 117 155 121 26 1 27 -1 27 -44z"/>
<path d="M3251 1339 c-13 -5 -36 -18 -52 -30 l-29 -20 0 25 c0 23 -4 26 -35
26 l-35 0 0 -175 0 -175 40 0 40 0 0 116 c0 63 5 124 10 135 13 24 81 59 115
59 38 0 79 -25 93 -55 7 -15 12 -74 12 -145 l0 -120 41 0 40 0 -3 144 c-3 138
-4 146 -28 172 -14 14 -39 33 -57 40 -37 16 -116 17 -152 3z"/>
</g>
</svg>
